# xmcd CD database file
#
# Track frame offsets:
#	150
#	16575
#	36100
#	53545
#	69405
#	89685
#	104772
#	118775
#	136457
#	156240
#	176837
#	190462
#	207942
#	225900
#	244287
#	260762
#
# Disc length: 3633 seconds
#
# Revision: 0
# Processed by: cddbd v1.5.2PL0 Copyright (c) Steve Scherf et al.
# Submitted via: CDex 1.70beta2
#
DISCID=e40e2f10
DTITLE=Nashville Session Singers - 16 Pop 'n' Country Hits
DYEAR=2000
DGENRE=Country
TTITLE0=You're Still the One
TTITLE1=Dance The Night Away
TTITLE2=Cover Your Kkisses
TTITLE3=What If
TTITLE4=If You Ever Have forever In My Mind
TTITLE5=The Kiss
TTITLE6=The Hole
TTITLE7=There Goes My baby
TTITLE8=Commitment
TTITLE9=One Of These Days
TTITLE10=There's Your Trouble
TTITLE11=You'll Never Know
TTITLE12=To Make You Feel My love
TTITLE13=Looking Through Your Eyes
TTITLE14=Now That I Found You
TTITLE15=Put Your Heart Into It
EXTD=YEAR: 2000
EXTT0=
EXTT1=
EXTT2=
EXTT3=
EXTT4=
EXTT5=
EXTT6=
EXTT7=
EXTT8=
EXTT9=
EXTT10=
EXTT11=
EXTT12=
EXTT13=
EXTT14=
EXTT15=
PLAYORDER=
